<svg xmlns="http://www.w3.org/2000/svg" xmlns:xlink="http://www.w3.org/1999/xlink" width="2000" zoomAndPan="magnify" viewBox="0 0 1500 1499.999933" height="2000" preserveAspectRatio="xMidYMid meet" version="1.0"><defs><clipPath id="6b541b4d23"><path d="M 346.109375 407.699219 L 1153.855469 407.699219 L 1153.855469 1092.449219 L 346.109375 1092.449219 Z M 346.109375 407.699219 " clip-rule="nonzero"/></clipPath></defs><path fill="#d26020" d="M 375.183594 -0.183594 C 168.089844 -0.183594 0.183594 167.722656 0.183594 374.816406 L 0.183594 1124.816406 C 0.183594 1331.910156 168.089844 1499.816406 375.183594 1499.816406 L 1125.183594 1499.816406 C 1332.277344 1499.816406 1500.183594 1331.910156 1500.183594 1124.816406 L 1500.183594 374.816406 C 1500.183594 167.722656 1332.277344 -0.183594 1125.183594 -0.183594 Z M 375.183594 -0.183594 " fill-opacity="1" fill-rule="nonzero"/><g clip-path="url(#6b541b4d23)"><path fill="#ffffff" d="M 823.417969 615.101562 L 346.222656 1092.296875 L 346.222656 885.265625 L 823.417969 407.699219 Z M 676.582031 884.527344 L 676.582031 1092.296875 L 1006.941406 762.308594 L 1006.941406 1092.296875 L 1153.777344 945.460938 L 1153.777344 407.699219 Z M 676.582031 884.527344 " fill-opacity="1" fill-rule="nonzero"/></g></svg>