<svg xmlns="http://www.w3.org/2000/svg" xmlns:xlink="http://www.w3.org/1999/xlink" width="2000" zoomAndPan="magnify" viewBox="0 0 1500 1499.999933" height="2000" preserveAspectRatio="xMidYMid meet" version="1.0"><defs><clipPath id="00ff9a48c1"><path d="M 346.109375 407.699219 L 1153.855469 407.699219 L 1153.855469 1092.449219 L 346.109375 1092.449219 Z M 346.109375 407.699219 " clip-rule="nonzero"/></clipPath><clipPath id="596929e08a"><path d="M 623 546 L 1486 546 L 1486 1409 L 623 1409 Z M 623 546 " clip-rule="nonzero"/></clipPath><clipPath id="5eb4b0d07b"><path d="M 1222.273438 546.089844 L 1485.058594 808.878906 L 885.933594 1408.003906 L 623.148438 1145.21875 Z M 1222.273438 546.089844 " clip-rule="nonzero"/></clipPath><clipPath id="8860eec587"><path d="M 0.0390625 0 L 862.121094 0 L 862.121094 862.078125 L 0.0390625 862.078125 Z M 0.0390625 0 " clip-rule="nonzero"/></clipPath><clipPath id="4489ccca32"><path d="M 599.273438 0.0898438 L 862.058594 262.878906 L 262.933594 862.003906 L 0.148438 599.21875 Z M 599.273438 0.0898438 " clip-rule="nonzero"/></clipPath><clipPath id="df3cbdeddb"><rect x="0" width="863" y="0" height="863"/></clipPath></defs><path fill="#d26020" d="M 375.183594 -0.183594 C 168.089844 -0.183594 0.183594 167.722656 0.183594 374.816406 L 0.183594 1124.816406 C 0.183594 1331.910156 168.089844 1499.816406 375.183594 1499.816406 L 1125.183594 1499.816406 C 1332.277344 1499.816406 1500.183594 1331.910156 1500.183594 1124.816406 L 1500.183594 374.816406 C 1500.183594 167.722656 1332.277344 -0.183594 1125.183594 -0.183594 Z M 375.183594 -0.183594 " fill-opacity="1" fill-rule="nonzero"/><g clip-path="url(#00ff9a48c1)"><path fill="#ffffff" d="M 823.417969 615.101562 L 346.222656 1092.296875 L 346.222656 885.265625 L 823.417969 407.699219 Z M 676.582031 884.527344 L 676.582031 1092.296875 L 1006.941406 762.308594 L 1006.941406 1092.296875 L 1153.777344 945.460938 L 1153.777344 407.699219 Z M 676.582031 884.527344 " fill-opacity="1" fill-rule="nonzero"/></g><g clip-path="url(#596929e08a)"><g clip-path="url(#5eb4b0d07b)"><g transform="matrix(1, 0, 0, 1, 623, 546)"><g clip-path="url(#df3cbdeddb)"><g clip-path="url(#8860eec587)"><g clip-path="url(#4489ccca32)"><path fill="#d26020" d="M 599.273438 0.0898438 L 862.058594 262.878906 L 262.578125 862.355469 L -0.207031 599.570312 Z M 599.273438 0.0898438 " fill-opacity="1" fill-rule="nonzero"/></g></g></g></g></g></g></svg>